<?xml version="1.0" encoding="UTF-8"?>
<svg width="1381px" height="1315px" viewBox="0 0 1381 1315" version="1.1" xmlns="http://www.w3.org/2000/svg" xmlns:xlink="http://www.w3.org/1999/xlink">
    <!-- Generator: Sketch 52.2 (67145) - http://www.bohemiancoding.com/sketch -->
    <title>p1-link</title>
    <desc>Created with Sketch.</desc>
    <g id="Page-1" stroke="none" stroke-width="1" fill="none" fill-rule="evenodd">
        <g id="Artboard" transform="translate(-1096.000000, -646.000000)" fill="#00FF00" fill-rule="nonzero">
            <g id="p1-link" transform="translate(1096.000000, 646.000000)">
                <path d="M1051.75113,0.137189917 C1070.11354,-0.90080001 1086.74661,4.22624115 1105.17191,6.27076676 C1121.99364,7.81202453 1135.60823,14.9521371 1151.58102,19.9533613 C1167.20793,24.6085888 1177.80405,34.3594033 1191.70163,42.5375057 C1202.04621,48.2936317 1208.05172,57.1322732 1215.81801,65.6249181 C1222.38949,73.3626612 1229.40117,79.4018753 1233.33148,89.0268728 C1266.00022,160.239273 1297.59992,232.17512 1329.79702,303.6077 L1333.44435,310.338907 L1326.24402,311.188172 L1327.59605,306.029676 L1323.22554,307.382208 C1322.65958,300.934089 1322.18794,294.643241 1319.38956,288.69839 C1315.99377,289.138749 1312.62943,289.579108 1309.23364,290.019468 C1314.35876,301.248632 1319.26379,312.572158 1324.54613,323.738413 C1324.892,319.995359 1325.36363,316.315213 1326.02392,312.635067 L1328.63365,311.313988 C1328.19346,314.899772 1327.69038,318.485555 1327.1873,322.071339 C1332.62685,327.041109 1329.7027,336.288655 1334.2933,340.818066 L1342.84565,339.905893 C1338.91534,330.217987 1334.10464,320.938986 1330.33155,311.156717 L1333.57012,312.635067 C1340.64468,326.820929 1346.52442,341.730239 1353.34744,356.073372 C1352.2784,360.476966 1351.14647,364.817651 1349.29136,368.969611 C1347.53058,360.288241 1346.05279,351.575416 1344.16624,342.9255 C1341.05343,343.082771 1337.90918,343.271497 1334.79638,343.428768 C1336.68293,356.513732 1346.74452,367.617079 1348.56819,381.110948 C1349.66867,375.826635 1351.0207,370.573777 1352.56138,365.383827 C1353.22167,375.700818 1354.7938,386.017809 1357.40352,396.020257 C1361.11374,406.934879 1367.1507,417.03169 1370.95524,427.883403 C1363.47192,426.059057 1364.32087,409.16813 1356.64891,409.639943 C1356.52314,425.461426 1356.77468,441.157092 1355.95717,456.978575 C1363.18894,454.179148 1370.0434,450.970815 1376.83498,447.196306 C1374.28814,440.685279 1371.20678,434.457339 1368.43984,428.040674 C1371.48976,428.543942 1374.50824,429.04721 1377.55816,429.519023 C1378.78441,440.02474 1381.92866,448.831927 1380.73385,459.337643 C1379.41326,478.461821 1381.42558,497.869087 1379.69625,516.898903 C1374.75978,541.527573 1370.51504,566.407877 1364.85539,590.879276 C1355.73707,617.143566 1346.27289,643.376403 1336.65148,669.483422 C1328.13057,686.877617 1319.35812,704.177449 1310.33412,721.32001 C1302.75649,736.072049 1296.46799,750.666816 1287.06669,764.223594 C1270.55938,788.632084 1254.96391,813.701113 1238.14218,837.889424 C1220.2514,860.788111 1201.70034,883.214984 1183.62091,905.9564 C1175.41442,916.49357 1166.42187,926.370202 1156.86335,935.712111 C1137.46334,956.094459 1117.90612,976.476807 1098.34889,996.670429 C1070.71095,1021.48782 1042.63281,1045.83341 1014.74332,1070.36771 C1001.91479,1080.65325 988.331635,1089.99516 975.283003,1100.06052 C952.047007,1116.57399 930.005825,1135.28927 905.575014,1149.72676 C879.603521,1165.54824 854.040781,1182.15608 827.849191,1197.63157 C797.066998,1213.01269 766.693557,1229.08581 735.754152,1244.08948 C704.971959,1256.451 673.938226,1268.21488 642.967378,1280.13604 C616.933,1287.84233 590.395543,1294.03882 564.203953,1301.27329 C547.853861,1306.30597 530.843476,1307.09233 513.487224,1309.64012 C492.200662,1311.7161 472.706321,1316.68587 451.231104,1314.42116 C430.227524,1314.83007 409.349714,1314.98734 388.314691,1313.50899 C369.386315,1310.30066 350.678036,1305.36234 331.843988,1301.55638 C318.701029,1299.07149 308.765204,1292.4661 296.408307,1287.18179 C283.579773,1280.9224 270.845567,1276.89626 260.218007,1266.92526 C246.886393,1255.22428 230.787841,1245.47347 220.726245,1231.2247 C205.445198,1212.82397 190.572902,1194.10869 175.260412,1175.77087 C168.846145,1168.28476 163.878232,1160.45266 156.300593,1154.03599 C159.224745,1151.55111 162.148896,1149.06622 165.135932,1146.61279 C152.653265,1130.44531 136.145961,1115.66182 120.204621,1103.08012 C130.486313,1116.41672 143.660714,1127.3628 155.231549,1139.56704 C154.508372,1142.83828 153.816637,1146.10952 153.156345,1149.38077 C116.683062,1102.70267 77.7572657,1057.81747 41.3783104,1011.04502 C33.1718218,998.400412 21.0035801,986.636526 17.0103844,972.136121 C13.4573836,961.410226 8.89822329,950.967418 5.78541726,940.084251 C3.08136354,924.357131 2.64116875,908.25256 0,892.462531 C0.943274553,881.264821 2.29530141,870.13002 3.04992106,858.900857 C4.05608058,834.52382 12.2625692,810.366964 17.7021191,786.619013 C24.305041,766.582662 32.1971048,746.860853 39.7433012,727.170499 C48.4528696,708.643951 58.0428275,690.557763 66.6580684,671.968307 C79.3293899,649.447071 93.1955259,627.492011 106.621467,605.37968 C121.399435,583.707709 136.711925,562.193009 152.118743,540.929942 C173.656845,514.319655 194.503213,486.891557 217.864979,461.885436 C234.435169,443.799248 250.313624,425.241247 268.267283,408.507591 C318.984011,356.104827 373.914033,308.35729 431.265126,263.409181 C543.79778,176.595478 669.599163,100.318945 802.852415,50.2123404 C824.264747,41.1535192 847.154876,35.2715763 869.258943,28.037101 C891.61455,20.3622664 914.12737,16.5248491 937.111826,11.146174 C957.989636,5.86186164 980.093703,4.98114291 1001.44315,1.80426465 C1017.7618,-1.12097969 1034.96084,0.640457761 1051.75113,0.137189917 Z M1247.60637,129.2883 C1249.74446,159.861822 1261.6926,186.943923 1275.52729,213.711481 L1280.14934,211.383867 C1280.9354,217.989258 1281.53281,224.405923 1283.57657,230.822588 L1294.67577,232.741296 C1290.21093,220.1596 1283.16782,208.898982 1279.80347,196.034198 C1278.45144,201.003968 1276.97365,205.942284 1275.3072,210.849145 C1274.80412,197.732727 1273.89228,183.421048 1267.69811,171.562799 C1260.90654,157.597117 1255.68709,142.530535 1247.60637,129.2883 Z M878.188609,155.584045 C880.704008,158.131839 883.250849,160.648178 885.829133,163.101609 C901.267393,175.934939 915.982476,189.617533 931.766604,202.010504 C924.346177,187.44719 917.114406,172.663698 909.159457,158.383473 C899.097862,156.401855 888.407417,156.905123 878.188609,155.584045 Z M796.501033,166.215578 C817.221631,178.702912 837.785016,191.504787 858.882923,203.300128 C851.431054,188.296455 843.476106,173.481508 835.458272,158.792378 C822.472526,161.308717 809.455337,163.479059 796.501033,166.215578 Z M840.520512,160.836903 C847.500744,176.343844 856.084542,191.724967 864.353916,206.571369 C880.955548,219.34179 898.280357,231.325856 915.164972,243.718826 C920.132884,247.650606 927.396098,251.079118 930.131595,256.961061 C938.180871,271.367103 945.066775,286.465139 953.367591,300.745364 C963.743611,301.909171 974.088189,303.576245 984.495651,304.771507 C979.213314,293.039075 972.704719,281.967182 967.1394,270.392022 C964.309576,264.793167 962.171487,259.383038 957.109247,255.356895 C939.501455,240.353223 922.176646,225.003553 904.568854,209.999881 C900.229791,206.539914 898.343242,201.884687 895.827843,197.103642 C889.287806,184.364675 882.590557,171.688616 875.956193,158.949649 C864.133818,159.10692 852.374329,160.553815 840.520512,160.836903 Z M913.215538,158.666561 C928.779568,174.582406 943.494651,191.662059 960.31638,206.225372 C954.247981,192.133872 946.13582,179.111817 939.910207,165.11468 C935.068065,163.85651 930.225922,162.598341 925.352337,161.40308 C921.327699,160.459452 917.271618,159.547279 913.215538,158.666561 Z M751.066642,179.080363 C772.950612,190.026438 794.897466,201.035422 817.095861,211.320959 C809.015142,196.56892 801.972025,180.778892 792.476395,166.907572 C778.767471,171.311165 764.775565,174.676769 751.066642,179.080363 Z M881.773053,163.667785 C888.910497,177.413288 895.639188,191.536242 903.405482,204.935748 C920.541637,219.876512 937.394809,235.666541 955.568565,249.286227 C949.971803,236.012537 942.834359,223.210662 935.979897,210.534603 C922.648283,197.701273 907.901758,186.157567 894.129949,173.764596 C890.073869,170.336084 885.923461,166.97048 881.773053,163.667785 Z M944.060616,166.718846 C946.513129,169.86427 948.997086,173.041148 951.481042,176.186572 C961.982832,188.48518 971.19548,202.387955 982.892085,213.459847 C977.924172,200.909605 970.6924,189.52317 965.787373,176.941474 C962.391584,175.242945 958.995796,173.575871 955.600008,171.94025 C951.732582,170.210267 947.896599,168.448829 944.060616,166.718846 Z M799.330857,171.751525 C801.374618,175.746213 803.449822,179.677993 805.556469,183.641227 C810.996019,193.580767 816.278356,203.583216 821.655021,213.55421 C834.232015,212.044406 846.746124,209.779701 859.197348,207.420633 C839.577237,195.027662 819.485489,183.232322 799.330857,171.751525 Z M918.277778,168.543192 C921.201929,174.928403 924.283292,181.219251 927.521868,187.415736 C931.200639,194.367123 934.439215,201.507236 938.338083,208.332806 C946.481687,210.471694 954.625291,212.704945 962.768894,214.718017 C953.273264,203.425945 942.394164,193.580767 932.332569,182.823417 C927.836293,177.885101 923.151363,173.135511 918.277778,168.543192 Z M704.028684,196.34874 C726.227079,206.28828 749.117208,215.284193 771.881567,223.934109 C763.926618,209.213525 755.908785,194.524395 747.702296,179.929627 C733.20731,185.622845 718.52367,190.718431 704.028684,196.34874 Z M971.730002,181.596702 C977.38965,192.385506 984.747191,202.293592 991.601653,212.327494 C990.784148,214.5922 989.966644,216.856905 989.117697,219.12161 C995.437636,230.633862 1002.19777,242.33484 1010.78157,252.305834 C1008.61204,240.699219 1001.63181,232.709842 995.437636,223.116299 C996.097928,221.480678 996.758221,219.845058 997.38707,218.209437 C994.054167,211.855681 990.564051,205.627741 988.048652,198.896534 C986.193546,191.378971 977.26388,186.440655 971.730002,181.596702 Z M753.267616,183.73559 C754.902625,186.881014 756.569077,190.057892 758.266971,193.203316 C764.461141,203.866304 769.837806,215.095468 776.283515,225.601184 C797.72729,237.207799 820.240109,247.556244 842.249849,258.093414 C835.741254,245.448809 829.044005,232.835659 822.252428,220.348326 C819.831357,214.623654 814.454692,213.585664 809.423894,210.786237 C793.702652,203.740487 778.610259,195.468022 762.951901,188.327909 C759.713325,186.786651 756.506192,185.245394 753.267616,183.73559 Z M1277.91692,286.433684 C1277.75971,268.567676 1280.65242,250.607305 1280.18078,232.835659 C1273.20055,215.661644 1265.0255,198.86508 1257.51075,181.87979 C1255.93863,197.795636 1254.99535,213.805844 1253.83198,229.753144 C1252.25985,239.849955 1260.27769,250.292762 1263.83069,259.603218 C1268.51562,268.190225 1271.03102,279.482297 1277.91692,286.433684 Z M952.612971,183.075051 C955.694335,189.837713 958.870026,196.537466 962.140044,203.205765 C967.579594,214.686563 975.062906,226.702082 985.061616,234.691459 C983.237952,235.729449 981.414288,236.767439 979.590624,237.805429 C987.734227,252.526014 997.229858,276.431236 1011.78773,285.081152 C1011.56763,280.646104 1010.97022,276.305419 1010.05839,272.059097 C1002.10344,261.930831 994.054167,251.771112 985.596138,242.083206 C986.539413,240.982307 987.451245,239.849955 988.39452,238.749056 C993.393875,247.619152 1001.34882,258.219231 1009.30377,264.541533 C1002.00912,250.858939 996.349468,234.754368 986.004891,223.27357 C979.433411,215.315647 972.956259,207.231908 966.51055,199.179622 C962.077159,193.643676 957.423672,188.296455 952.612971,183.075051 Z M656.644859,217.800532 C679.314891,225.915726 702.173578,233.559107 724.937937,241.391212 C717.297413,227.268259 709.656889,212.956579 701.293188,199.242531 L699.626736,198.141632 C685.288963,204.715568 670.82542,210.974962 656.644859,217.800532 Z M705.883791,201.066876 C707.801782,204.495389 709.719774,207.923901 711.637766,211.352413 C717.328855,221.858129 723.302928,232.17512 728.962575,242.680836 C743.45756,238.308697 757.575236,232.741296 771.881567,227.802981 C750.28058,218.272346 728.0193,209.339342 705.883791,201.066876 Z M823.510128,216.573817 C831.119209,231.388764 839.168485,246.04644 847.091991,260.704116 C860.10918,258.87977 873.189254,257.086878 886.112115,254.696356 C878.534477,239.692683 870.831068,224.594648 862.467367,210.031335 C849.48162,212.044406 836.464431,214.309112 823.510128,216.573817 Z M940.507615,211.918589 C941.828199,214.812379 943.180226,217.70617 944.532253,220.568505 C951.07229,232.867113 957.014919,245.700443 964.058036,257.684509 C977.798402,272.593819 992.4506,286.716773 1006.00231,301.783354 C1010.78157,302.695527 1009.20944,293.699614 1010.40426,290.648553 C1003.17249,281.086464 994.179937,272.216368 988.897599,261.616289 C981.257075,247.90224 975.125791,233.370381 967.422382,219.750695 C959.058681,215.913278 949.311511,214.560746 940.507615,211.918589 Z M868.252784,213.33403 C870.076448,217.297264 871.962997,221.260499 873.912431,225.160825 C881.458628,237.081982 885.451823,254.067271 898.06026,260.767024 C914.347467,272.436548 930.414577,284.514976 946.984767,295.838502 C940.19319,282.313179 933.716038,268.284588 925.792532,255.419804 C910.731581,243.15265 894.192834,232.426754 878.660246,220.694322 C875.201573,218.240892 871.7429,215.787461 868.252784,213.33403 Z M610.581618,242.366294 C634.572235,249.443498 659.1917,257.778872 683.496741,263.189001 C697.26855,257.118333 711.103243,251.110573 724.780724,244.851179 C701.135976,235.603632 676.799492,228.180432 652.903203,219.593424 C638.785528,227.110987 624.290542,234.125283 610.581618,242.366294 Z M734.307797,244.064823 C754.399545,254.381814 776.535055,261.55338 797.34998,270.486385 C790.086766,256.80379 782.572012,243.215558 775.025816,229.690235 C761.411219,234.408371 747.953836,239.503958 734.307797,244.064823 Z M779.144781,230.948405 C781.440083,235.28909 783.766826,239.661229 786.09357,243.97046 C791.470235,253.406732 796.280935,263.126092 801.972025,272.342185 C815.397966,268.567676 829.10689,265.894066 842.375619,261.647743 C825.742544,253.626912 809.329567,245.165721 792.633607,237.302161 C788.137332,235.194727 783.641056,233.055839 779.144781,230.948405 Z M1283.10493,234.660005 C1282.75907,253.626912 1280.55809,272.499456 1280.49521,291.466363 C1288.67025,289.862197 1296.81386,288.25803 1304.9889,286.62241 C1303.00803,269.700029 1299.23493,252.997827 1296.53087,236.201263 C1292.0346,235.06891 1287.56977,234.534188 1283.10493,234.660005 Z M1260.18336,362.081132 C1266.25176,340.03171 1271.34544,317.667745 1276.87932,295.492506 C1268.83004,276.840141 1260.30913,258.313594 1251.631,239.975772 L1250.09032,239.126507 C1244.55645,260.043577 1237.16746,283.948799 1233.20571,304.802961 C1242.10393,323.927139 1250.97071,343.082771 1260.18336,362.081132 Z M564.17251,269.951663 C588.163127,275.613426 612.37384,282.753538 636.521669,287.125678 C650.576459,280.803375 663.908073,272.876907 677.805652,266.177154 C654.569655,257.464329 629.918747,251.519478 606.085343,244.442274 C592.12488,252.997827 577.849991,261.018658 564.17251,269.951663 Z M687.835804,264.761713 C708.179092,273.348721 729.717194,279.733931 750.626447,286.968407 C743.143136,273.537446 735.754152,260.043577 728.082185,246.738433 C714.656244,252.714739 700.915878,258.06196 687.835804,264.761713 Z M732.169708,247.524789 C733.553178,250.292762 734.999532,253.060736 736.414444,255.828709 C742.608613,266.74333 748.456916,277.94104 755.21705,288.509664 C769.083186,283.351169 783.263747,279.041938 797.09844,273.78908 C778.610259,265.610977 759.713325,258.628136 741.099374,250.79603 C738.143781,249.663678 735.156744,248.562779 732.169708,247.524789 Z M1302.75649,253.815637 C1303.16524,257.086878 1303.60543,260.358119 1304.13996,263.62936 C1305.46054,270.89529 1306.84401,278.192674 1307.78728,285.521512 C1311.46605,286.150596 1315.17627,286.465139 1318.94937,286.465139 C1313.66703,276.053785 1310.2398,262.622825 1302.75649,253.815637 Z M851.431054,263.251909 C870.390873,274.889978 889.445019,286.590956 908.81359,297.537031 C902.053455,284.168979 895.198994,270.800927 887.841452,257.747417 C875.641768,259.068495 863.536411,261.270292 851.431054,263.251909 Z M806.342531,274.355256 C826.214181,284.892427 846.714682,294.171428 866.837872,304.20533 C860.549375,290.77437 852.908851,278.003948 846.243044,264.761713 C832.817103,266.082791 819.485489,271.115469 806.342531,274.355256 Z M893.12379,261.050113 C895.387649,265.548069 897.714392,269.983117 900.041136,274.449619 C905.009049,283.256806 908.970802,292.755987 914.536122,301.154269 C933.212958,315.277223 952.361432,329.05418 971.509905,342.516595 C966.25901,331.853607 960.69369,321.316437 955.222698,310.747812 C952.927396,306.595852 951.19806,302.506801 947.079094,299.770282 C929.125435,286.84259 911.391873,273.505992 893.12379,261.050113 Z M636.584554,290.585644 C611.304796,284.735156 586.150807,278.224128 560.933934,272.059097 C546.313179,282.659176 528.139422,290.837278 517.165995,304.960232 C489.811033,325.1224 462.864823,345.662019 437.333525,368.120346 C445.697226,382.086029 454.689777,395.642807 463.305018,409.451218 C482.264837,394.604817 499.935513,378.374429 519.618509,364.4402 C542.351426,346.700009 566.404927,330.90998 590.332658,314.868318 C614.354717,320.404264 638.156678,326.663658 662.147294,332.262512 C676.673722,324.807858 691.20015,317.384657 705.695136,309.867093 C697.425762,295.869957 689.533699,281.684094 681.421537,267.624049 C666.360587,275.015795 651.551177,282.973718 636.584554,290.585644 Z M685.288963,268.095862 C692.58362,281.809911 700.381356,295.272326 708.304862,308.608924 C722.170998,302.789889 735.785594,296.436133 749.840385,291.088912 C745.375552,288.195122 740.564852,286.465139 735.534054,284.892427 C718.743767,279.482297 702.267905,272.908361 685.288963,268.095862 Z M850.48778,266.586059 C852.311444,270.266205 854.197993,273.883443 856.084542,277.532134 C861.36688,287.314403 866.649217,297.128126 871.931555,306.910395 C884.194124,304.865869 896.551021,303.953696 908.719262,301.500266 C889.633674,289.484746 870.107891,277.72086 850.48778,266.586059 Z M971.730002,273.443083 L973.585109,275.298883 L974.748481,273.537446 C972.547507,280.174291 980.691111,288.69839 983.017855,295.209417 C987.545572,306.658761 996.160813,314.019053 1004.77605,322.322973 C1005.93943,317.133023 1006.85126,311.974528 1007.44867,306.690215 C998.707655,298.291933 990.752706,289.107295 981.980253,280.709013 C979.590624,278.287036 977.169552,275.896514 974.748481,273.537446 L973.050587,271.870371 L971.730002,273.443083 Z M759.807653,290.082376 C780.119498,299.392831 801.154521,307.445117 821.969446,315.560311 C815.114984,302.12935 807.631673,289.044386 800.305574,275.86506 C786.753862,280.488833 773.170709,285.018244 759.807653,290.082376 Z M804.487424,277.186138 C811.907851,290.711461 818.85664,304.582781 827.063128,317.667745 C840.331857,314.427958 853.632028,311.282534 866.869315,307.948385 C846.494584,296.970855 825.365234,287.157132 804.487424,277.186138 Z M713.241332,310.43327 C734.024815,317.416111 754.682528,324.965129 775.59178,331.633428 C768.328566,318.485555 761.254007,305.148957 753.361943,292.347082 C739.998887,298.291933 725.944096,303.16734 713.241332,310.43327 Z M1279.86636,294.989238 C1287.78986,310.590541 1293.76393,328.23637 1302.9137,342.956954 C1304.64303,325.216763 1304.86313,307.256392 1305.83785,289.421837 C1297.09684,290.900187 1288.41871,292.567261 1279.86636,294.989238 Z M757.543794,293.070529 C764.83845,306.595852 772.227434,320.184084 780.213826,333.331957 C794.205731,328.802546 808.10331,323.895685 822.032331,319.11464 C800.682883,310.150182 779.207666,301.217177 757.543794,293.070529 Z M1263.39049,362.332766 C1276.06182,358.054989 1288.73314,353.745759 1301.37302,349.467982 C1294.89586,333.646499 1287.444,318.139559 1280.24367,302.601164 L1278.35712,301.846262 C1273.13766,321.914067 1267.9811,342.10769 1263.39049,362.332766 Z M1308.35325,297.253943 C1307.37853,313.578694 1306.84401,329.934899 1305.86929,346.259649 C1305.17756,352.04723 1307.91305,356.167735 1310.11403,361.231868 C1315.93089,373.467567 1321.59053,385.797629 1326.7471,398.316417 C1329.54548,394.699179 1328.75942,388.313969 1329.16817,383.941829 C1329.23106,370.353597 1330.80318,356.608094 1329.98568,343.051317 C1322.94256,327.890373 1317.06282,311.502714 1308.35325,297.253943 Z M876.742255,308.986375 C894.853126,321.379345 914.190255,332.293967 933.055746,343.52313 C926.955904,330.249441 919.346822,317.793562 913.12121,304.614235 C900.952968,305.306229 888.847612,307.570934 876.742255,308.986375 Z M957.958194,304.299693 C970.723843,316.849935 984.904404,327.984736 998.14169,340.063164 C1001.12873,335.596662 997.041203,326.223298 1004.74461,326.9782 C1002.26066,322.071339 999.430832,325.877302 995.909273,326.946746 C992.765025,320.687352 990.218184,313.358514 985.596138,307.979839 C980.282358,306.878941 974.811366,306.312764 969.434701,305.620771 C965.598718,305.148957 961.794177,304.708598 957.958194,304.299693 Z M831.716616,320.278447 C851.493939,330.060716 871.271262,339.874439 891.237241,349.216348 C884.602876,336.037021 877.528317,323.04642 870.327988,310.150182 C857.656666,313.673057 843.884858,315.465948 831.716616,320.278447 Z M667.366747,333.646499 C690.099663,340.755157 713.241332,346.668555 735.974249,353.90303 C757.983989,361.200413 779.867958,368.81234 801.751928,376.518628 C824.799269,385.105636 847.217761,395.265356 870.296545,403.820909 C863.096216,390.861762 856.587622,376.109723 848.003823,364.220021 C802.317893,344.686937 756.065997,327.166926 708.745057,312.005982 C694.753151,318.642826 680.383935,325.216763 667.366747,333.646499 Z M875.107246,312.100345 C876.80514,315.623219 878.534477,319.11464 880.326698,322.574606 C888.092992,334.307038 891.960418,352.04723 905.292031,357.61463 C922.365301,367.302536 938.652508,378.877697 956.323185,387.370341 C949.783148,374.537011 943.431766,361.231868 935.822684,348.996168 C919.18961,338.270272 901.896243,328.299278 884.980186,317.982287 C881.710168,316.032125 878.408707,314.050507 875.107246,312.100345 Z M918.875185,309.206554 C920.824619,313.421423 922.868381,317.604837 925.00647,321.725342 C929.722842,329.809082 933.338728,338.521906 938.306641,346.416921 C952.833069,358.243715 968.648639,368.717977 983.615262,380.104412 C987.985767,375.229005 988.01721,370.699594 983.741032,366.453272 C986.822395,366.358909 989.903759,366.233092 992.985122,366.107275 C990.941361,363.811115 988.897599,361.514956 986.822395,359.250251 C996.978318,358.684074 994.934556,351.072148 997.953035,343.774764 C984.715749,332.042333 971.604232,319.963905 957.643769,309.143646 C967.799692,325.845847 972.57895,347.612182 990.029529,357.583176 C986.162103,357.174271 982.986412,358.338078 980.533898,361.074597 C978.238597,355.633013 977.578305,350.348701 972.264525,346.951643 C954.468078,334.527218 937.457694,320.246993 918.875185,309.206554 Z M1203.39823,381.394036 C1221.57199,376.45572 1239.24267,369.818875 1257.32209,364.597471 C1250.56196,346.574192 1241.28643,329.368722 1233.33148,311.848711 C1222.9869,334.84176 1213.17685,358.149352 1203.39823,381.394036 Z M550.526472,345.504748 C572.630539,350.222884 594.828933,354.626477 616.995885,358.8728 C630.579039,350.600335 644.696715,343.082771 657.902559,334.275584 C636.710324,328.896909 615.423761,323.769868 594.168641,318.611372 C590.018233,317.133023 588.037357,320.246993 584.641568,322.102793 C573.259389,329.997807 561.499899,337.106465 550.526472,345.504748 Z M784.427119,334.873214 C804.738964,343.74331 825.522447,352.04723 846.211602,359.973698 C839.703007,346.888734 832.439793,334.149767 825.333792,321.379345 C811.561983,325.468397 798.041715,330.375258 784.427119,334.873214 Z M829.326987,322.543152 C831.653731,326.789475 833.949033,331.035797 836.244334,335.28212 C841.086477,344.278032 846.022947,353.211036 850.959417,362.144041 C864.385358,359.313159 877.779857,356.293552 891.080028,353.022311 C875.233016,344.498212 858.945808,336.69756 842.721486,328.896909 C838.288096,326.75802 833.823263,324.619132 829.326987,322.543152 Z M621.303506,359.784973 C643.218918,365.572553 665.417312,370.793957 687.521379,375.795181 C701.57617,369.567241 715.222209,361.54641 729.15123,354.815203 C706.858508,348.304175 684.597228,341.132608 662.021524,335.691025 C648.312601,343.491676 634.823774,351.701233 621.303506,359.784973 Z M508.173444,376.015361 C510.720286,379.443873 517.794845,379.034968 521.882368,380.135866 C538.578327,382.68366 555.17996,386.049263 571.970247,388.062335 C564.581263,374.191015 555.651597,361.263322 547.948188,347.549273 C534.019167,355.97901 521.976695,367.302536 508.173444,376.015361 Z M551.941384,349.059077 C553.54495,351.701233 555.148517,354.311935 556.752084,356.922637 C562.600386,366.673451 568.794556,376.298449 574.296991,386.269443 C587.534277,379.223693 600.582908,370.007601 612.562495,361.011688 C595.67788,357.457359 578.761823,354.249026 561.908651,350.757606 C558.575748,350.159975 555.274287,349.593799 551.941384,349.059077 Z M855.487135,364.220021 C875.327343,374.253923 895.073224,384.633822 915.385069,393.692644 C908.404837,380.953676 902.022013,367.805804 894.538701,355.381379 C881.49007,358.212261 868.472881,361.168959 855.487135,364.220021 Z M1261.97558,365.792733 C1269.42745,383.627287 1278.45144,400.769848 1285.99764,418.541493 C1293.98403,397.467152 1296.81386,373.78211 1303.00803,351.952867 C1289.33054,356.57664 1275.71595,361.357685 1261.97558,365.792733 Z M723.994662,360.697146 C713.492872,365.91855 702.928197,371.202862 692.835159,377.210622 C712.83258,383.690195 733.20731,389.100325 753.424828,394.762088 C747.073446,381.708578 739.495807,369.158336 732.043938,356.702457 C729.371327,358.023535 726.667273,359.376068 723.994662,360.697146 Z M736.005692,356.954091 C743.174578,370.22778 750.626447,383.407107 758.487068,396.303346 C772.290319,390.610128 786.030685,384.822548 799.833936,379.192239 C781.91172,372.052126 763.392096,366.421817 745.21834,359.879335 C742.136976,358.904254 739.087055,357.929173 736.005692,356.954091 Z M942.362721,353.777213 C948.714103,366.579089 955.285583,379.34951 962.360142,391.773935 C967.296612,392.088477 972.233082,392.497383 977.13811,392.937742 C979.276199,389.760864 981.257075,386.489623 983.143625,383.124019 C973.522224,376.046815 963.806496,369.158336 954.279423,361.98677 C950.349113,359.187342 946.387359,356.450823 942.362721,353.777213 Z M1304.54871,357.048454 C1299.89522,377.808252 1294.51855,398.379325 1290.21093,419.202032 C1302.56783,415.081527 1314.42165,409.671398 1326.71566,405.23635 C1320.14418,389.037416 1312.72375,372.492486 1304.54871,357.048454 Z M1333.38147,353.777213 C1332.24954,370.101963 1331.46347,386.741257 1331.62069,403.097461 C1338.91534,400.518214 1346.17856,397.781695 1353.37889,394.824996 C1346.58731,381.551307 1342.15392,365.635461 1333.38147,353.777213 Z M899.506614,357.520267 C901.518933,361.609319 903.594137,365.635461 905.669341,369.661604 C910.511484,378.594608 915.259299,387.559067 920.227212,396.397708 C932.426896,395.202447 944.62658,393.818461 956.794822,392.591745 C942.048296,382.337663 926.169841,373.719201 910.951679,364.157112 C907.147138,361.923861 903.342597,359.69061 899.506614,357.520267 Z M577.189699,389.320504 C598.916456,393.849915 620.706099,398.064783 642.527183,402.090926 C634.194925,388.691419 626.680171,374.757191 618.002045,361.577864 C604.418891,370.825411 590.269773,379.380964 577.189699,389.320504 Z M622.844188,363.465119 C629.132685,374.788645 636.112916,385.671812 642.684396,396.838068 C644.25652,399.291498 645.105467,401.996563 645.231237,405.01617 C621.240621,401.587658 597.375775,396.020257 573.542371,391.459393 C545.558559,411.621561 518.266482,432.632993 492.389317,455.468771 C501.53908,468.648098 510.217206,485.539025 519.995819,497.617453 C540.653532,500.196701 561.342687,502.775949 582.031842,505.0092 C573.793911,491.13788 565.241555,477.329468 556.500544,463.772691 C569.769273,452.071714 584.893108,442.069265 599.105111,431.50064 C622.152453,435.904234 645.13691,440.685279 668.247136,444.77433 C683.025104,436.124414 697.834515,427.600315 712.58104,418.981853 C735.722709,425.618697 758.895821,432.035362 781.91172,439.112567 C796.72113,433.765346 811.121788,427.317226 825.773987,421.5611 C818.47933,407.941414 810.996019,394.290274 803.072512,381.016585 C788.200217,386.646894 773.768116,393.661189 758.738608,398.851139 C731.792399,392.717562 704.720419,382.966748 677.679882,376.487174 C659.411798,372.177943 641.175156,367.459807 622.844188,363.465119 Z M1249.11561,370.070509 C1233.33148,374.977371 1217.70456,380.450409 1201.79467,384.916911 C1202.95804,392.308657 1206.79402,398.033329 1209.96971,404.827445 C1215.84946,417.126053 1221.66632,429.519023 1227.82904,441.691814 C1238.64526,417.063144 1248.7383,392.025569 1258.83133,367.050902 C1255.59276,368.057438 1252.35418,369.063974 1249.11561,370.070509 Z M397.464454,404.387085 C418.719574,406.997787 440.069022,408.94795 461.324142,411.495744 C452.394476,397.813149 443.999332,383.784558 434.943897,370.164872 C422.178248,381.20531 409.695581,392.749016 397.464454,404.387085 Z M854.197993,367.428353 C855.958772,370.982682 857.750994,374.474103 859.574658,377.965524 C864.856996,387.338887 869.667696,396.963885 875.390228,406.05416 C888.564629,402.814373 901.959128,400.769848 915.039202,397.121156 C894.916011,387.024345 874.667051,376.833171 854.197993,367.428353 Z M1231.94801,440.590916 C1249.49292,434.237159 1267.22648,428.292308 1284.64561,421.592555 C1276.65922,405.708163 1269.2388,386.112172 1260.27769,371.297225 C1250.87639,394.416091 1240.87767,417.314778 1231.94801,440.590916 Z M465.285895,411.778832 C486.666785,415.018619 508.142002,417.597866 529.585777,420.302931 C521.284961,406.683245 512.92126,393.095013 504.368904,379.632598 C491.03729,389.981043 478.397411,401.147299 465.285895,411.778832 Z M508.456427,380.953676 C516.411375,393.503918 524.209112,406.148523 532.101176,418.698765 C544.363745,409.419764 556.972181,400.518214 568.888883,390.798854 C548.797135,387.21307 528.642502,384.067646 508.456427,380.953676 Z M807.002823,381.834395 C808.669275,384.791094 810.304284,387.779246 811.970736,390.735945 C817.59894,400.581122 822.849835,410.615025 828.635253,420.334385 C842.029751,415.962246 856.744834,413.005547 869.290386,406.620336 C851.934134,399.794766 834.67221,392.654654 817.378843,385.545995 C813.951612,384.256372 810.492939,383.029656 807.002823,381.834395 Z M1156.36027,463.458148 C1179.28185,456.852758 1202.14053,449.995734 1224.96778,443.075801 C1216.60408,424.108894 1206.85691,405.739618 1198.36744,386.804165 C1182.55187,410.80375 1168.74861,437.5084 1156.36027,463.458148 Z M381.523114,844.148818 C402.966889,842.355926 423.907584,835.215814 444.911164,830.686403 C535.905716,803.132489 617.624735,757.995654 695.161903,703.579818 C712.895465,689.802861 731.572301,677.189711 748.89711,662.909486 C769.554823,644.823298 791.40735,627.838008 811.027461,608.619467 C826.434279,592.451988 843.570433,578.454851 858.065419,561.375198 C877.559759,539.671773 897.17987,518.534523 914.12737,494.723663 C932.081029,473.020238 946.13582,449.052106 961.228212,425.398518 C967.107957,415.836429 971.761445,405.487984 976.697915,395.391173 C945.066775,394.101549 912.052166,400.581122 881.301415,407.658326 C827.094571,421.686917 775.497453,443.453252 726.604388,470.661169 C652.463009,511.897678 584.830223,564.300443 525.466811,624.881309 C474.089791,678.101884 427.14616,739.689286 396.175312,807.095723 C390.138355,819.01688 385.076115,831.252579 381.523114,844.148818 Z M1331.08616,406.557428 C1338.44371,421.938551 1344.38634,438.955295 1353.41033,453.23552 C1353.47321,434.771881 1354.38505,416.308242 1354.3536,397.844603 C1346.55587,400.644031 1338.82102,403.600729 1331.08616,406.557428 Z M359.136065,442.792713 C368.191501,456.443853 377.121166,470.252264 386.239487,483.87195 C398.156189,471.950793 410.292988,460.28127 421.45507,447.605211 C412.619732,434.01698 403.941606,420.334385 394.949056,406.840516 C382.969469,418.761673 370.926997,430.651376 359.136065,442.792713 Z M399.351003,407.721235 C406.960085,420.711836 415.512441,433.167715 423.781814,445.749411 C435.352649,435.369512 446.892041,424.89525 458.085566,414.106446 C438.559782,411.621561 418.939672,409.734306 399.351003,407.721235 Z M1288.63881,423.605626 C1296.75097,440.748187 1304.54871,458.048019 1312.84952,475.096217 C1318.8236,452.889524 1323.06833,430.242471 1328.19346,407.847052 C1314.86184,412.565188 1301.56167,417.880954 1288.63881,423.605626 Z M425.699806,448.045571 C433.34033,462.199979 443.024615,475.253489 451.482644,488.967537 C463.933868,477.769828 476.039225,466.194667 488.553334,455.059866 C480.504057,441.188546 471.542949,427.78904 462.927708,414.263717 C450.099174,425.021067 438.088145,436.784953 425.699806,448.045571 Z M467.078116,415.238798 C468.681683,417.8495 470.28525,420.428748 471.888817,423.03945 C478.240199,432.947535 484.308598,443.044347 491.005848,452.732253 C502.733894,442.69835 514.839251,433.104807 526.535856,423.03945 C510.091436,420.523111 493.552689,418.66731 477.045384,416.339697 C473.743923,415.962246 470.41102,415.584795 467.078116,415.238798 Z M1316.37108,475.347851 C1328.13057,469.969176 1339.98439,464.716318 1351.68099,459.211826 C1344.85797,443.610523 1337.72053,428.072128 1330.5202,412.596642 C1324.95488,433.262078 1320.74159,454.399327 1316.37108,475.347851 Z M672.428987,445.938137 C694.061416,451.128086 715.725289,456.129311 737.357718,461.31926 C750.815102,454.776778 763.926618,447.636666 777.761312,441.911994 C769.020301,436.69059 758.015431,435.400966 748.394031,432.129725 C736.445886,429.173027 724.403415,424.297619 712.298058,422.567636 C698.997887,430.273925 685.414733,437.665671 672.428987,445.938137 Z M1230.03002,444.302516 C1236.75871,463.112152 1246.85175,481.41852 1255.78141,499.347437 C1266.03166,474.498587 1275.77883,449.461012 1285.68322,424.486345 C1267.10071,430.997373 1248.58108,437.665671 1230.03002,444.302516 Z M1282.88484,439.269838 C1274.39536,460.690175 1265.87445,482.110513 1257.44786,503.593759 C1266.09455,520.925045 1273.64074,538.916871 1283.16782,555.776344 C1292.75778,530.738768 1302.28485,505.669739 1312.0949,480.726526 C1304.13996,463.080698 1295.74481,445.623594 1287.63265,428.040674 C1286.02908,431.752274 1284.42552,435.495329 1282.88484,439.269838 Z M592.156322,439.836014 C581.62309,447.762483 570.806875,455.342955 560.682395,463.804145 C581.906072,467.043932 603.098307,470.629715 624.353427,473.492051 C615.989726,460.564358 608.978052,446.661584 599.859731,434.237159 C597.281447,436.092959 594.734606,437.980214 592.156322,439.836014 Z M604.701874,435.495329 C606.55698,438.703661 608.412087,441.911994 610.298636,445.088872 C616.304151,454.808232 622.215338,464.621955 628.06364,474.467133 C649.507415,478.461821 670.856862,482.802506 692.33208,486.482652 C685.288963,473.366234 677.302572,460.784538 669.69349,447.982662 C647.998176,444.082336 626.397188,439.552926 604.701874,435.495329 Z M322.537012,479.436903 C331.403793,494.472029 341.685486,508.752254 351.369771,523.284113 C362.909163,511.771861 372.782103,498.655443 384.038513,486.828649 C375.486157,471.604797 365.14158,457.293117 355.645949,442.635441 C344.075115,454.367873 333.887749,467.452837 322.537012,479.436903 Z M1217.17004,448.423022 C1195.94636,454.902595 1174.47115,460.72163 1153.46757,467.767379 C1162.77454,486.671378 1172.30161,505.481013 1181.70292,524.353558 C1197.01541,498.592535 1211.44751,472.233882 1226.13115,446.063954 C1223.11267,446.818855 1220.12563,447.605211 1217.17004,448.423022 Z M695.413443,485.193028 C708.14765,478.08437 720.818971,470.849895 733.33308,463.363786 C713.681527,458.802921 694.092859,453.329883 674.252651,449.7441 C681.169997,461.602348 688.024459,473.586414 695.413443,485.193028 Z M417.084565,456.821304 C407.651819,466.666481 397.873207,476.22857 388.157479,485.790659 C395.860888,500.007976 405.922483,512.967123 414.537724,526.681171 C426.485868,515.263282 437.89949,502.93322 449.250227,490.949154 C440.760756,477.235106 431.862533,463.741237 423.027195,450.215913 C421.046318,452.41771 419.065442,454.619507 417.084565,456.821304 Z M1222.82969,457.922202 C1210.34702,479.971625 1197.95868,502.021047 1185.35025,524.039015 C1181.54571,528.945877 1186.95381,534.481823 1188.71459,539.294322 C1196.35512,553.385821 1202.29775,568.735491 1211.13308,582.072088 C1225.47086,555.933615 1239.9344,529.826595 1254.08352,503.593759 C1245.81415,485.193028 1236.69582,467.169749 1228.0177,448.957744 C1226.28836,451.945897 1224.55903,454.934049 1222.82969,457.922202 Z M1355.86284,460.218362 C1362.15134,475.725302 1369.28878,491.515331 1377.05508,506.361732 C1378.72153,487.772276 1377.84114,468.962641 1377.74681,450.310276 C1370.51504,453.770242 1363.28327,457.1673 1355.86284,460.218362 Z M454.532565,491.389514 C474.781525,493.559856 495.124813,495.06966 515.405216,497.271457 C507.324497,483.934859 498.740699,470.912803 490.597095,457.60766 C478.208756,467.987559 465.065797,479.248177 454.532565,491.389514 Z M1342.37402,466.603573 C1333.2557,470.692624 1324.20026,474.938946 1315.0505,478.933635 C1321.99929,496.264921 1330.45732,513.187302 1338.6638,529.952412 C1343.82037,507.399722 1348.15943,484.658306 1353.0959,462.074162 C1349.51146,463.552511 1345.92702,465.062315 1342.37402,466.603573 Z M562.411731,466.886661 C563.952413,469.748997 565.524537,472.579878 567.128104,475.41076 C572.787751,484.721215 578.856151,493.780036 584.264258,503.247762 C595.835093,494.314758 610.172866,486.38829 619.699939,475.536577 C600.551466,473.146054 581.49732,469.717542 562.411731,466.886661 Z M1354.7938,467.389929 C1350.26608,489.848256 1344.88942,512.306584 1340.99055,534.859274 C1347.05895,549.988763 1354.69947,564.552077 1361.30239,579.429932 L1363.75491,581.097007 C1368.94292,560.714659 1372.24438,539.79759 1376.45767,519.226516 C1377.96691,513.942204 1375.13709,510.419329 1373.21909,505.858464 C1366.99348,493.119497 1361.99413,479.594174 1354.7938,467.389929 Z M1146.48733,478.619092 C1129.03676,503.499396 1110.26559,527.624799 1093.56963,552.976916 C1103.56834,571.25183 1112.21503,590.564733 1123.12557,608.27347 C1142.21116,581.568821 1160.98232,554.612537 1180.13079,527.939341 C1171.07536,509.035343 1161.54829,490.351524 1152.0841,471.636251 C1150.19755,473.963865 1148.34244,476.291478 1146.48733,478.619092 Z M587.377064,506.141552 C608.129105,508.657892 628.661047,512.495309 649.413088,515.011648 C641.300926,502.241227 634.415022,488.401361 625.202374,476.417295 C612.971247,486.608469 598.570589,494.84948 587.377064,506.141552 Z M630.641924,478.147279 C632.119721,480.789435 633.62896,483.431591 635.169642,486.042293 C640.860732,495.164023 646.143069,504.505932 652.085699,513.47039 C664.348268,505.355196 677.145359,497.869087 688.747636,488.84172 C672.680527,485.696296 656.581974,482.771052 640.514864,479.594174 C637.244846,479.090906 633.943385,478.587638 630.641924,478.147279 Z M290.308465,521.365405 C300.24429,535.708538 310.085788,550.11458 319.832959,564.583531 C330.146094,551.938926 339.956149,538.791054 349.608992,525.643181 C339.421627,511.457319 330.523404,496.32783 319.990171,482.362147 C310.431656,495.604382 299.395343,507.808627 290.308465,521.365405 Z M1284.55129,559.833941 C1292.94643,576.284508 1300.11532,594.811056 1309.70527,610.317996 C1319.16946,585.437692 1328.41355,560.463025 1337.59476,535.456904 C1330.04856,518.503069 1322.06217,501.706505 1314.13867,484.90994 C1303.10235,509.318431 1294.64432,535.016545 1284.55129,559.833941 Z M385.987947,488.652995 C375.26606,501.014511 364.166863,513.061485 353.979497,525.863361 C373.348068,527.215893 392.905294,528.59988 412.305307,528.536972 C403.595739,515.200374 394.666073,502.021047 385.987947,488.652995 Z M444.659624,500.133793 C434.755242,509.444248 426.108558,519.887055 416.329945,529.354782 C424.850859,542.722834 433.654755,555.996523 442.490093,569.17585 C453.9666,557.38051 465.317337,545.459353 476.605189,533.506741 C468.493028,520.012872 459.720575,506.896454 451.136776,493.717128 C448.967245,495.856016 446.797713,497.994904 444.659624,500.133793 Z M455.570167,494.503484 C462.959151,506.990817 470.78833,519.257971 478.994818,531.242036 C490.125458,520.862137 501.444753,510.670963 512.229525,499.976521 C493.395476,497.774725 474.4671,496.296375 455.570167,494.503484 Z M444.282315,572.164003 C452.960441,584.745699 460.978274,597.767754 469.562073,610.412359 C482.547819,598.050842 494.118654,584.336794 507.041515,571.880915 C518.612349,560.809022 530.403281,549.988763 541.942673,538.885417 C533.641857,525.831907 525.403926,512.746943 517.165995,499.630525 C491.66614,522.717937 466.889461,546.214255 444.282315,572.164003 Z M521.473616,500.825786 C528.768272,513.061485 536.251584,525.328639 544.489515,536.903799 C555.557269,526.96426 568.071379,518.282889 578.258744,507.399722 C559.330368,505.323742 540.464877,502.71304 521.473616,500.825786 Z M547.853861,539.545956 C567.725511,541.936478 587.628604,544.043912 607.531697,546.308617 C599.954058,533.255108 592.187765,520.233052 583.635409,507.840081 C572.001689,518.125618 557.506704,527.656253 547.853861,539.545956 Z M588.446109,509.318431 C595.300571,521.145225 602.815325,532.53166 609.764114,544.295546 C622.466878,536.526349 633.943385,526.555354 645.954414,517.748167 C626.900268,514.634197 607.657467,511.331502 588.446109,509.318431 Z M1251.41091,514.571289 C1239.58853,536.400532 1227.10587,557.946686 1215.78657,580.059017 C1237.419,572.950359 1258.83133,565.055344 1280.21222,557.286147 C1271.97429,540.583946 1264.17656,523.63011 1255.81286,506.959363 C1254.33506,509.507156 1252.85726,512.023495 1251.41091,514.571289 Z M261.632919,563.199544 C271.725956,577.762857 281.693224,592.420533 292.069244,606.795121 C300.810255,593.521432 309.928576,580.342105 318.072179,566.690965 C307.853372,552.473648 298.672166,537.50143 288.076049,523.567202 C279.052055,536.620711 270.311045,549.925855 261.632919,563.199544 Z M345.332814,536.337623 C337.44075,546.528797 329.611571,556.782879 321.908163,567.131324 C330.743501,580.845373 340.207689,594.213425 349.514665,607.612931 C359.136065,594.748147 368.788908,581.883363 378.441751,569.018579 C369.57497,555.461801 360.676747,541.873569 351.369771,528.631334 C349.357452,531.179128 347.345133,533.758375 345.332814,536.337623 Z M355.488737,529.386236 C357.689711,532.688931 359.890685,535.991626 362.123101,539.262867 C368.411598,548.25878 374.00836,557.695052 380.674167,566.407877 C390.609993,555.052896 400.294278,543.477736 410.167218,532.059846 C391.993462,530.801677 373.693936,529.700778 355.488737,529.386236 Z M407.903359,539.042688 C399.351003,549.108045 390.57855,559.01613 382.246292,569.301667 C391.2074,582.22936 399.351003,596.257951 409.412599,608.304925 C419.537079,596.069225 429.787329,583.833526 440.289119,571.912369 C432.554268,558.072503 422.932867,545.207719 414.223299,531.965484 C412.116652,534.324552 410.010006,536.652165 407.903359,539.042688 Z M1175.32009,539.420139 C1158.37259,563.419724 1141.42509,587.419309 1124.41471,611.355986 C1133.09284,630.134167 1143.37453,648.188901 1152.77583,666.621086 C1171.70421,639.884982 1190.3496,612.86579 1208.86923,585.815143 C1199.31071,567.728955 1191.22999,548.919319 1181.57715,530.864585 C1179.4705,533.726921 1177.3953,536.557803 1175.32009,539.420139 Z M1339.07256,539.829044 C1337.90918,542.880105 1336.77725,545.931166 1335.67677,548.982228 C1328.2249,569.081487 1320.36428,589.086384 1313.47837,609.374369 C1329.29394,601.353538 1345.86413,594.62233 1361.30239,585.94096 C1353.88197,570.622745 1347.59347,554.549628 1339.07256,539.829044 Z M536.503123,548.007146 C513.644437,568.672582 492.137777,590.344554 471.542949,613.306149 C479.843765,626.013662 487.924484,638.9099 496.85415,651.208508 C507.85902,639.727711 518.612349,627.963825 529.554334,616.420119 C542.131328,604.121511 555.337172,592.389079 567.756954,579.901746 C559.927775,566.911145 551.532631,554.329448 543.54624,541.464664 C541.188054,543.635007 538.86131,545.836804 536.503123,548.007146 Z M548.136843,542.565563 C549.897622,545.805349 551.721286,549.013682 553.576393,552.159106 C559.173155,560.746114 564.42405,569.521847 570.178025,577.983037 C581.560205,568.420948 593.351137,559.23631 604.073024,548.919319 C585.459073,546.654614 566.782237,544.641543 548.136843,542.565563 Z M1020.0571,633.373954 C1030.27591,653.284488 1041.34366,672.817571 1052.06555,692.445017 C1074.92424,665.394371 1098.47466,638.752629 1120.64161,611.135806 C1110.51713,591.50836 1100.39265,571.880915 1090.01663,552.379286 C1066.40333,579.11539 1043.38743,606.386216 1020.0571,633.373954 Z M1212.01347,584.871516 C1220.12563,603.209338 1229.80992,620.886621 1238.51949,638.9099 C1253.61188,613.431966 1267.00638,586.53859 1281.09261,560.431571 C1257.9195,568.074951 1234.93505,576.473234 1212.01347,584.871516 Z M1282.72762,563.514087 C1281.12406,566.533694 1279.52049,569.553301 1277.91692,572.541454 C1266.91205,593.930337 1254.49227,614.690135 1244.27346,636.45647 C1265.11983,628.907452 1285.65177,620.477716 1306.4667,612.802881 C1299.01483,596.257951 1291.21709,579.555749 1282.72762,563.514087 Z M254.747014,574.397254 C249.244579,584.494065 243.270507,594.307788 238.019612,604.530416 C254.747014,605.505497 271.505859,605.788586 288.264704,606.63785 C278.769073,592.98671 269.556425,579.11539 259.714927,565.747338 C258.048475,568.609674 256.382024,571.503464 254.747014,574.397254 Z M319.581419,570.182386 C311.029063,583.330258 302.256609,596.289405 293.892908,609.53164 C303.168441,623.119872 312.601187,636.613741 322.096817,650.044702 C330.460519,636.708104 339.232972,623.591685 347.56523,610.192179 C338.384025,596.855581 329.737341,582.795536 319.581419,570.182386 Z M351.181116,610.160725 C360.047897,623.497323 369.166218,636.676649 378.347423,649.824522 C387.905939,636.896829 397.747437,624.157862 406.802872,610.852718 C397.590224,598.145205 389.981143,583.959343 379.982433,571.912369 C370.140935,584.462611 360.771074,597.421758 351.181116,610.160725 Z M410.95328,610.78981 C429.693002,612.299613 448.684263,612.299613 467.486869,612.708518 C459.311823,599.686463 450.853794,586.790224 442.112783,574.114166 C431.422338,586.035323 421.297858,598.522656 410.95328,610.78981 Z M1209.93827,589.400926 C1191.57586,616.199939 1172.71037,642.652955 1154.53661,669.609239 C1163.62349,687.066342 1172.01863,706.19052 1182.89773,722.420908 C1200.78851,695.621896 1219.33957,669.263242 1237.13602,642.401321 C1227.92337,624.849855 1219.99986,606.449125 1209.93827,589.400926 Z M1352.93869,593.58434 C1338.91534,600.252639 1324.892,606.952392 1310.99442,613.840871 C1318.25763,631.203612 1327.09297,648.03163 1335.20513,665.01692 C1344.60643,639.979345 1353.44177,614.72159 1362.43432,589.495289 C1359.25863,590.847821 1356.08294,592.200354 1352.93869,593.58434 Z M232.737275,615.193403 C228.335327,624.944218 223.964821,634.757941 219.782971,644.603118 C230.410531,659.22934 240.912321,673.949924 251.476996,688.6076 C256.947988,676.371901 262.230326,664.073293 267.324008,651.680322 C257.293856,636.865375 246.603411,622.459333 236.447488,607.738748 C235.189789,610.223633 233.963532,612.708518 232.737275,615.193403 Z M240.126259,607.927474 C242.201463,610.947081 244.308109,613.966688 246.414756,616.986295 C253.866625,627.649282 261.381379,638.249361 268.959018,648.817986 C275.844922,635.733022 283.422561,623.025509 289.931155,609.75182 C273.423851,608.650921 256.665006,607.958928 240.126259,607.927474 Z M270.877009,651.491597 C279.932445,664.954011 289.773943,677.85025 298.640724,691.438482 C307.350292,679.611687 313.796001,665.174191 320.273153,651.931956 C310.337328,639.255897 302.256609,625.070035 291.943474,612.802881 C284.774588,625.573303 277.668586,638.469541 270.877009,651.491597 Z M324.046252,651.96341 C332.189855,665.992001 342.534433,678.66806 351.306886,692.3192 C359.859242,679.014057 368.537368,665.740367 376.397989,652.026319 C367.373996,639.067172 358.538658,626.013662 349.577549,613.054515 C340.490671,625.604757 332.787262,639.161534 324.046252,651.96341 Z M408.060572,614.155413 C398.973694,626.957289 389.509506,639.476077 380.139645,652.057773 C388.597674,665.300008 397.558782,678.322063 406.64566,691.123939 C416.204175,678.290609 426.202886,665.457279 434.566587,651.837593 C425.416824,639.57044 417.933512,625.824937 408.060572,614.155413 Z M412.776945,614.249776 C414.789264,617.552471 416.801583,620.792258 418.876787,624.032045 C424.630761,632.744869 430.636276,641.268968 436.453136,649.918885 C446.388961,639.035717 455.758822,627.55492 464.877142,616.011214 C447.678103,614.627227 430.070311,614.72159 412.776945,614.249776 Z M438.496897,652.309407 C446.357519,665.520188 455.224299,678.322063 464.028195,690.935214 C474.184118,678.416426 484.685908,666.243635 494.590291,653.567576 C486.163705,640.860063 478.114429,627.995279 469.467745,615.476492 C458.965955,627.586374 449.03013,640.199524 438.496897,652.309407 Z M1053.66912,695.150082 C1063.10186,713.645175 1073.47788,731.574092 1083.22505,749.911914 C1106.20951,723.521807 1128.37646,696.345343 1150.88928,669.514876 C1141.92817,651.680322 1132.71553,633.908676 1123.15701,616.388664 L1121.58489,615.350675 C1098.69476,641.677874 1076.24482,668.539795 1053.66912,695.150082 Z M1240.18594,641.677874 C1248.61253,659.355157 1257.44786,676.938077 1266.44042,694.363726 C1280.40088,668.225252 1294.07836,641.929508 1307.7244,615.633763 C1285.08581,623.780411 1262.35289,632.367419 1240.18594,641.677874 Z M1304.61159,627.775099 C1292.50624,651.239963 1279.86636,674.421738 1268.07542,698.012418 C1276.50201,714.746074 1284.77138,731.574092 1293.2923,748.276294 C1307.25276,722.232183 1320.01841,695.527533 1334.01032,669.514876 C1326.11825,652.372315 1317.69167,635.512843 1309.5795,618.496099 C1307.91305,621.578614 1306.27804,624.692584 1304.61159,627.775099 Z M849.890373,795.331837 C860.643703,813.82693 871.837227,832.007481 882.74777,850.408212 C911.423316,826.723169 939.18703,801.874319 967.390939,777.654554 C994.934556,750.163548 1022.54106,722.703996 1049.89602,694.992811 C1040.18029,675.962995 1029.58418,657.373539 1019.36537,638.563904 C989.872316,667.564713 961.291097,697.414787 930.949099,725.534878 C903.845677,748.716653 876.868025,772.024245 849.890373,795.331837 Z M1183.90389,726.195417 C1192.83356,743.495249 1201.38591,761.141078 1211.19597,777.969097 C1229.08674,751.232992 1246.85175,724.402525 1264.77396,697.666421 C1256.19017,680.429498 1247.32338,663.318391 1239.08545,645.892742 C1219.87409,671.905398 1202.04621,699.333496 1183.90389,726.195417 Z M218.242289,648.346173 C214.626403,659.575336 210.66465,670.8045 207.834827,682.253844 C218.996909,696.408252 228.523982,712.009555 240.314914,725.597787 C243.742145,714.431531 246.949278,703.202367 250.282181,692.004658 C239.717507,677.472799 229.876009,661.934404 218.242289,648.346173 Z M269.179115,654.983017 C263.865335,667.155808 258.331458,679.328599 253.709412,691.784478 C263.267928,705.215439 272.983656,718.552037 282.573614,731.951543 C288.296146,719.904569 292.949634,707.385781 297.948989,695.024265 C288.516243,681.624759 279.49225,667.721985 269.179115,654.983017 Z M353.350648,695.118628 C362.563296,707.794687 370.801227,721.414373 380.83138,733.492801 C388.817771,720.407837 396.615507,707.22851 404.916323,694.332272 C396.52118,681.058582 387.434302,668.162344 378.410308,655.29756 C369.70074,668.288161 361.431366,681.719121 353.350648,695.118628 Z M436.264481,655.486285 C427.712125,667.061445 419.222654,678.762423 410.921838,690.526309 C427.240488,690.557763 443.59058,690.840851 459.940672,690.306129 C452.363033,678.542243 444.47097,666.809812 436.264481,655.486285 Z M316.81448,665.362917 C312.223877,674.327375 307.350292,683.134562 302.822574,692.130475 C317.757755,692.193383 332.692935,692.161929 347.659558,692.161929 C339.547397,679.70605 330.837828,667.659076 322.285472,655.517739 C320.430366,658.757526 318.606702,662.060221 316.81448,665.362917 Z M1146.14147,679.674596 C1125.76674,703.925815 1105.54922,728.302851 1085.04872,752.428253 C1094.16704,770.545896 1104.16575,788.317542 1114.00725,806.057733 C1136.33141,779.667625 1158.02673,752.77425 1180.19368,726.258326 C1171.60988,708.04632 1161.64261,690.4634 1152.61862,672.471575 C1150.41765,674.862097 1148.27956,677.252619 1146.14147,679.674596 Z M208.683774,689.771407 C208.054924,693.483007 207.457517,697.226062 206.828667,700.969116 C206.136932,707.22851 203.590091,714.27426 204.816348,720.470745 C214.343421,734.090431 224.153476,747.678663 234.372284,760.795081 C236.164506,750.572453 237.547975,740.286917 239.120099,730.00138 C229.121389,716.94787 220.003068,701.378022 208.683774,689.771407 Z M302.067954,695.370262 C310.777523,708.612497 320.241711,721.351464 329.454359,734.279157 C336.560361,721.603098 343.100398,708.392317 349.577549,695.370262 C333.730537,695.275899 317.883524,695.244445 302.067954,695.370262 Z M408.783749,693.954821 C416.990238,706.788151 425.636921,719.558572 434.629472,731.85718 C443.779235,719.306938 452.991883,706.725242 461.418469,693.671733 C443.873562,693.891912 426.328656,693.483007 408.783749,693.954821 Z M252.514598,695.087174 C249.055925,705.781615 245.660136,716.476057 243.081852,727.422132 C255.029997,729.152116 267.009584,730.630465 278.957728,732.203177 C272.417691,722.232183 265.185919,712.764457 258.331458,703.013642 C256.413466,700.371486 254.464032,697.72933 252.514598,695.087174 Z M296.06244,707.354327 C292.666651,716.633328 287.572969,725.84942 285.277667,735.442964 C294.270218,748.84247 304.017389,761.770163 313.387249,774.918035 C318.418047,762.430702 323.480287,749.911914 328.102332,737.26731 C318.701029,724.150891 309.456938,710.971565 300.055635,697.855147 C298.703609,701.032025 297.383024,704.177449 296.06244,707.354327 Z M351.558426,698.106781 C349.954859,701.22075 348.351293,704.33472 346.747726,707.44869 C341.999911,716.413148 337.44075,725.47197 333.038802,734.625153 C347.56523,735.034059 361.997331,733.492801 376.523759,733.712981 C368.600253,721.634552 360.362322,709.556124 351.558426,698.106781 Z M401.20611,705.37271 C394.917613,715.721155 388.629116,726.101054 382.309176,736.449499 C391.2074,749.188467 399.571101,762.399248 409.255386,774.572039 C416.612928,760.763627 425.699806,747.930297 432.680038,733.964614 C423.656044,721.791823 415.386671,709.021402 406.865757,696.502614 C404.979208,699.427859 403.092659,702.416011 401.20611,705.37271 Z M1044.80234,704.208903 C1020.93749,728.302851 996.695336,752.019348 973.019144,776.302022 C983.237952,794.482573 993.676857,812.568761 1004.02143,830.654949 C1030.18158,804.92538 1055.68144,778.66109 1081.27562,752.365345 C1071.62278,733.996069 1061.43541,715.909881 1051.56247,697.634967 C1049.29861,699.836764 1047.0662,702.007106 1044.80234,704.208903 Z M1260.37202,709.335944 C1245.93992,731.228096 1231.16195,752.900067 1216.88706,774.855127 C1241.63229,766.960112 1265.90589,757.618203 1290.43103,749.125558 C1282.38176,733.020987 1274.42681,716.884962 1266.25176,700.874754 C1264.27088,703.705635 1262.32145,706.505063 1260.37202,709.335944 Z M203.747304,725.000156 C203.967401,733.650072 202.395277,743.558158 204.942118,751.95644 C214.123324,765.576126 224.216361,778.692544 234.152187,791.777508 C233.932089,783.096138 235.095461,773.880045 233.554779,765.324492 C226.700318,754.692959 218.619599,744.816327 211.387827,734.404974 C208.903871,731.228096 206.35703,728.082672 203.747304,725.000156 Z M1115.73658,808.888615 C1124.57192,826.440081 1134.41342,843.488279 1143.78328,860.756657 C1165.95023,834.586729 1187.29968,807.693354 1209.02644,781.114521 C1199.90812,763.97196 1191.6073,745.665592 1181.48282,729.246478 C1159.44164,755.699494 1137.40046,782.15251 1115.73658,808.888615 Z M243.239065,730.504648 C245.345711,733.524255 247.4838,736.543862 249.621889,739.563469 C257.042316,749.597372 263.991105,760.008725 271.883169,769.665177 C275.43617,758.404559 278.454648,746.98667 281.347357,735.568781 C268.707478,733.555709 255.941829,732.045906 243.239065,730.504648 Z M241.478286,733.838797 C240.094816,744.029971 237.73663,754.221145 237.327878,764.506682 C246.226101,777.780371 256.287696,792.31223 266.946699,804.139024 C268.48738,793.947851 269.776522,783.756677 270.656912,773.502594 C260.972626,760.291814 251.822863,746.577765 241.478286,733.838797 Z M332.095528,737.770578 C333.887749,740.507096 335.711414,743.212161 337.535078,745.917226 C344.735407,755.982583 351.621311,766.331028 359.261835,776.050388 C365.801872,763.154149 372.436236,750.289365 378.567521,737.204401 C363.097818,737.04713 347.502345,736.355137 332.095528,737.770578 Z M280.718507,748.779562 C278.454648,756.989118 276.285117,765.167221 274.084143,773.376777 C283.799871,786.493196 292.981076,800.081427 303.168441,812.851849 C306.06115,801.811411 309.236841,790.833881 311.720797,779.69908 C311.657912,775.798754 307.664717,772.181516 305.652398,768.878821 C298.074759,758.970735 291.188855,748.590836 283.736986,738.588388 C282.699384,741.985446 281.693224,745.382504 280.718507,748.779562 Z M315.525338,777.497283 C324.517889,790.582247 333.541882,804.170479 343.729247,816.311815 C348.57139,804.10757 352.910453,791.746054 357.658268,779.510354 C348.82293,766.331028 339.421627,753.466243 330.208979,740.538551 C325.115296,752.77425 320.336038,765.135767 315.525338,777.497283 Z M376.995397,747.20685 C372.090369,756.92621 367.059571,766.551207 362.689066,776.553656 C376.806742,775.295486 390.924417,775.704391 405.042093,774.477676 C397.181472,762.776698 389.037868,751.295901 381.051477,739.72074 C379.668008,742.205625 378.315981,744.69051 376.995397,747.20685 Z M1279.52049,756.045491 C1257.03911,764.097777 1234.40052,771.772611 1212.07636,780.265256 C1220.81737,797.470725 1229.30684,815.116554 1239.24267,831.63003 C1256.59892,805.019743 1274.45825,778.692544 1291.37431,751.799169 C1287.444,753.214609 1283.48224,754.63005 1279.52049,756.045491 Z M1076.68502,761.203986 C1053.22892,785.549568 1029.26975,809.328974 1005.53067,833.422922 C1015.65515,850.974388 1025.49665,868.683125 1035.80979,886.140229 C1050.27333,871.545461 1065.20851,857.328145 1079.07465,842.167201 C1089.89086,830.843674 1101.80756,820.337958 1111.83772,808.322438 C1102.2792,790.582247 1092.62636,772.842055 1082.91063,755.196227 C1080.83543,757.177844 1078.76022,759.190915 1076.68502,761.203986 Z M206.042605,759.757091 C207.457517,766.173756 209.092526,772.527513 210.696093,778.912724 C213.274377,780.611253 215.85266,782.309782 218.430944,784.008311 C218.053634,785.612477 217.707767,787.216643 217.330457,788.789355 C224.625114,797.627997 230.599186,807.661899 238.208267,816.185998 C241.855595,815.148008 243.710702,816.563449 243.742145,820.495229 C243.993684,825.653725 253.269218,827.478071 256.602121,829.99441 C254.18105,821.438857 246.414756,814.927829 242.327233,806.969906 C240.849436,809.832242 239.403082,812.694578 237.956727,815.556914 C237.296435,809.643516 237.264993,804.10757 234.812479,798.571624 C232.391407,795.4262 227.86369,793.853488 224.499344,791.903325 C225.442618,790.45643 226.417335,789.009535 227.36061,787.56264 C220.160281,778.315093 213.903226,768.344099 206.042605,759.757091 Z M237.516533,795.772196 C245.848791,799.169254 254.243935,802.283224 262.827733,805.082652 C255.029997,793.759125 246.383313,783.096138 238.962887,771.520977 C235.787196,776.710927 237.35932,789.229715 237.516533,795.772196 Z M273.015098,779.164358 C271.694514,789.103898 270.499699,799.043437 269.36777,808.982977 C279.052055,820.652501 286.629694,836.505438 298.703609,845.564259 C300.212848,836.222349 301.061795,826.848986 302.162282,817.475622 C296.376865,808.353893 289.711058,799.892702 283.516888,791.022606 C280.309755,786.619013 277.700029,782.183965 273.015098,779.164358 Z M361.431366,779.164358 C369.857952,791.966233 378.819061,804.705201 388.094594,816.909446 C394.728958,804.10757 400.860243,791.022606 406.960085,777.937642 C391.773365,777.528737 376.618087,778.755453 361.431366,779.164358 Z M463.022036,1024.91634 C513.581552,1028.50212 564.015298,1035.7995 614.669141,1037.34076 C650.985212,1037.30931 688.401769,1038.7562 724.812167,1038.72475 C756.820617,1019.94657 788.325987,998.872226 819.925684,979.181871 C851.965577,955.811371 883.785372,932.063419 915.416512,908.158197 C944.37504,883.309347 973.082029,858.083046 1001.91479,833.076925 C991.69598,814.927829 981.728713,796.495644 970.6924,778.881269 C932.458339,810.304055 896.739675,845.281171 856.587622,874.187617 C833.66605,891.141453 810.964576,908.409831 787.917234,925.174941 C756.663404,945.2742 725.158034,965.058917 693.872761,985.063814 C689.785238,987.800333 685.477618,987.265611 680.761245,987.391428 C641.992661,986.699435 603.884369,985.629991 565.021457,985.221085 C557.035066,983.931462 553.167641,984.686363 545.904427,988.114875 C518.518022,1000.69657 489.811033,1011.20229 463.022036,1024.91634 Z M314.016099,782.844504 C311.280603,793.224403 308.167797,803.667211 306.249805,814.235836 C317.380445,815.30528 328.542527,816.248907 339.704609,817.066717 C331.529563,805.806099 324.140579,792.375139 314.016099,782.844504 Z M355.771719,792.249322 C352.313046,801.591231 348.69716,810.870232 345.647239,820.337958 C352.124391,828.673332 358.06702,837.354702 364.13542,845.973164 C368.726023,845.50135 373.316626,844.966628 377.907229,844.400452 C381.020035,836.505438 383.786973,828.484606 386.616797,820.495229 C377.970114,807.598991 368.788908,795.048749 359.859242,782.37269 C358.44433,785.643931 357.092303,788.946626 355.771719,792.249322 Z M1205.78786,789.607165 C1187.36257,812.096947 1169.15737,834.744 1150.63774,857.170873 C1148.78264,860.064664 1144.16059,863.430267 1147.11618,867.078959 C1156.01441,882.680262 1163.68637,899.099376 1173.43354,914.197411 C1194.43712,887.492761 1216.41542,861.44865 1236.97881,834.429458 C1228.33212,817.727256 1219.27669,801.21378 1211.0702,784.291399 C1209.27798,786.052836 1207.5172,787.814274 1205.78786,789.607165 Z M756.946387,865.16025 C798.261812,861.102653 839.545795,856.887785 880.829778,852.484192 C869.793466,834.083461 858.662826,815.745639 847.563629,797.407817 C817.284516,819.866145 786.753862,842.104292 756.946387,865.16025 Z M240.440684,800.17579 C249.055925,812.317127 257.576838,824.647189 267.135354,836.033624 C267.418336,827.037711 267.198238,818.19907 265.720442,809.29752 C260.878299,807.598991 256.099041,805.837553 251.288341,804.044662 C247.672455,802.723584 244.056569,801.465414 240.440684,800.17579 Z M1037.53912,889.380015 C1047.50639,906.365305 1056.87625,923.696591 1067.1265,940.52461 C1091.96607,914.606316 1117.59169,889.380015 1141.83385,862.926999 C1132.24389,845.910255 1123.15701,828.641878 1113.66138,811.593679 C1102.21632,822.917206 1090.77125,834.240732 1079.54628,845.784438 C1066.12034,860.85102 1050.65064,874.030346 1037.53912,889.380015 Z M306.43846,817.38126 C312.695514,826.943349 319.581419,836.379621 326.593093,845.438442 C329.234262,846.790974 332.12697,847.734601 335.239776,848.269323 C338.0696,839.11614 340.113361,829.77423 342.220008,820.463775 C334.390829,819.551602 326.530208,818.828155 318.669587,818.230524 C314.582064,817.915982 310.525983,817.632893 306.43846,817.38126 Z M269.462097,814.361652 C269.682195,822.099396 270.028062,829.742776 270.625469,837.449065 C276.945409,839.273411 283.328233,840.814668 289.805385,842.104292 C285.875075,836.379621 281.850437,830.749312 277.731471,825.181911 C274.995975,821.564673 272.260479,817.947436 269.462097,814.361652 Z M302.193724,845.878801 C309.394054,846.413523 316.56294,846.853883 323.763269,847.042608 C317.757755,838.07815 311.406373,829.396779 304.866336,820.809772 C303.482866,829.1766 302.571034,837.449065 302.193724,845.878801 Z M342.220008,832.007481 C340.993751,837.291794 339.924707,842.60756 338.855662,847.891873 C346.307531,847.954781 353.539303,847.514422 360.928287,846.53934 C355.960374,838.927414 350.426497,831.755847 345.521469,824.143921 C344.169442,826.628806 343.068955,829.270962 342.220008,832.007481 Z M922.050876,907.466204 C959.215893,901.458444 996.412353,895.136141 1033.48304,888.499297 C1024.14463,870.601834 1013.54851,853.396365 1003.76989,835.719082 C978.458694,856.47888 954.279423,878.685574 929.31409,899.854277 C926.578594,902.150437 924.157522,904.69823 922.050876,907.466204 Z M554.393898,981.761119 C597.532987,983.522556 640.860732,982.987834 683.999821,985.063814 C691.57746,985.25254 698.620577,978.049519 705.097729,974.558098 C740.501967,951.344869 777.761312,930.396345 811.247558,904.478051 C832.597006,888.310571 854.449533,872.772177 875.390228,856.132883 C835.615484,859.907392 795.840741,864.216623 756.09744,868.211312 C751.789819,868.462946 748.551243,870.538926 745.029685,872.803631 C716.291253,891.298724 687.458495,909.573638 658.720063,928.100185 C653.783593,931.717423 647.778078,930.679433 642.621511,933.887765 C613.348557,950.086699 583.352426,965.058917 554.393898,981.761119 Z M1068.50997,943.355492 C1078.32003,959.994785 1087.0296,977.577705 1097.9087,993.525005 C1121.67921,967.323623 1147.36772,942.82077 1170.91815,916.430662 C1161.45396,899.822823 1152.83872,882.680262 1143.12299,866.229695 C1118.34631,892.053626 1093.25521,917.468652 1068.50997,943.355492 Z M919.56692,910.92617 C929.534187,928.540544 940.19319,945.808922 950.883635,962.982938 C988.834714,956.629181 1026.72291,949.677794 1064.6111,942.915132 C1055.74432,925.426575 1044.95955,908.944553 1035.80979,891.581812 C996.978318,897.180667 958.304061,904.603868 919.56692,910.92617 Z M828.761023,977.263163 C868.347111,972.859569 907.9332,968.361613 947.487846,963.769294 C937.489136,946.154919 926.861576,928.823633 916.328344,911.555255 C886.992505,933.132864 857.153587,954.458838 828.761023,977.263163 Z M952.392874,965.845273 C962.517354,982.767655 972.673277,999.690036 982.8292,1016.61242 C1020.21431,1009.72394 1057.81953,1003.37018 1094.98454,995.380805 C1085.61468,978.835875 1075.96184,962.448215 1066.84352,945.777468 C1028.60946,951.753774 990.532609,959.176974 952.392874,965.845273 Z M826.905916,980.534404 C836.747414,997.771327 848.286806,1014.06462 858.285516,1031.20718 C898.814879,1028.03031 939.375685,1021.6451 979.842164,1017.36732 C970.189321,1000.25621 959.687531,983.585465 949.56305,966.757446 C908.719262,970.689226 867.686819,975.816268 826.905916,980.534404 Z M733.993372,1038.0013 C774.459851,1037.12058 815.114984,1034.25825 855.581462,1031.93063 C844.953902,1014.72516 834.106245,997.582602 823.101375,980.628766 C798.324697,996.292978 773.548019,1011.92574 748.77134,1027.55849 C743.866313,1030.76683 737.797913,1033.5348 733.993372,1038.0013 Z M1078.76022,1001.76602 C1047.44351,1007.86814 1015.93814,1013.05809 984.684306,1019.53766 C994.305707,1035.54787 1003.83278,1051.65244 1013.61139,1067.56829 C1038.85971,1045.17287 1064.8312,1023.37508 1089.38778,1000.31912 C1085.83478,1000.72803 1082.31322,1001.19984 1078.76022,1001.76602 Z M860.895242,1034.57279 C871.36559,1051.40081 881.61584,1068.48046 892.935135,1084.77376 C932.301126,1079.1749 971.887215,1074.7084 1011.31609,1069.5499 C1001.12873,1053.00497 991.884635,1035.64223 980.816881,1019.69493 C940.979252,1025.3567 900.827198,1029.25702 860.895242,1034.57279 Z M366.210624,1054.32605 C407.463165,1061.46616 448.589935,1069.77008 489.968246,1076.15529 C478.208756,1059.83054 466.575037,1043.37998 454.438237,1027.30686 C425.259611,1034.57279 396.26964,1042.0589 367.971403,1052.25007 L366.210624,1054.32605 Z M458.431433,1027.14959 C470.002267,1044.07197 482.201952,1060.83708 494.590291,1077.16183 C519.492739,1067.09647 544.080762,1056.18185 568.951768,1046.02213 C574.108336,1043.97761 579.076248,1041.77581 583.635409,1038.50457 C541.848346,1035.29624 500.155611,1030.82973 458.431433,1027.14959 Z M97.220164,1065.49231 C100.2072,1063.73087 103.225679,1061.96943 106.212715,1060.20799 C125.549843,1074.64549 144.258122,1090.15243 164.318427,1103.55194 C154.822797,1091.63078 145.673034,1079.20636 135.422783,1067.91428 C121.682417,1058.47801 105.866847,1052.37589 90.0512774,1047.46903 C94.9248626,1051.62099 99.9871027,1055.61568 105.237998,1059.42164 L97.1887215,1062.78724 C89.2337728,1050.74027 79.3922749,1042.53071 67.3812456,1034.85588 C76.8454336,1045.51886 87.5987635,1054.95514 97.220164,1065.49231 Z M629.855862,1092.19696 C640.923617,1108.8677 652.431566,1125.34973 664.033843,1141.64302 C693.401124,1127.04825 722.359653,1111.66713 751.506837,1096.60055 C756.065997,1094.46166 760.373617,1091.88241 765.561628,1091.7566 C806.594071,1089.74353 847.657956,1086.84974 888.721842,1085.15121 C880.892663,1070.30481 870.86251,1056.59076 862.310154,1042.15326 C859.826198,1038.85056 858.757153,1034.16388 853.663471,1034.98169 C812.5367,1037.37222 770.435213,1039.57401 729.308442,1041.49272 C724.780724,1042.15326 721.164839,1044.3236 717.203085,1046.39958 C688.150229,1061.84361 658.877276,1076.78438 629.855862,1092.19696 Z M496.791265,1079.26926 C507.135842,1096.632 520.593226,1112.67367 532.101176,1129.37587 C563.134908,1116.69981 594.200084,1104.08666 625.076604,1090.97024 C613.50577,1073.9535 601.809165,1056.96821 589.798136,1040.26601 C558.73296,1053.06788 527.950768,1066.65611 496.791265,1079.26926 Z M593.351137,1039.82565 C595.080473,1042.49926 596.841252,1045.17287 598.602032,1047.81502 C608.286317,1061.81216 618.002045,1075.77784 627.843543,1089.64916 C656.802072,1074.99149 686.106468,1059.67327 714.687687,1044.3236 L715.442306,1041.49272 C674.692846,1041.52418 634.037712,1039.66838 593.351137,1039.82565 Z M283.485446,1072.0977 C313.104267,1081.43961 343.289052,1089.05153 373.127971,1097.7329 C386.491027,1101.35014 399.885526,1105.75373 413.468679,1107.95553 C451.514086,1114.68674 489.465166,1121.88976 527.510573,1128.55806 C516.757243,1112.07604 504.463231,1096.60055 493.332591,1080.37016 C456.356229,1073.00987 419.096884,1066.97066 382.057637,1060.05072 C372.750661,1058.57237 364.732827,1055.8044 355.300082,1057.97474 C331.372351,1062.75579 307.350292,1067.06502 283.485446,1072.0977 Z M106.02406,1068.29173 L105.835405,1069.32972 C115.834115,1079.45799 121.525205,1090.56134 132.907385,1098.70798 C156.111939,1115.85055 178.436103,1134.34564 202.175179,1150.70184 C195.320718,1141.23412 187.711636,1132.42693 180.479865,1123.27375 C172.745013,1112.64221 160.262347,1105.34483 149.886327,1097.00946 C135.800093,1085.8432 120.58193,1075.84075 107.281759,1063.66796 C106.873007,1065.20922 106.432812,1066.75048 106.02406,1068.29173 Z M93.3841808,1069.26682 C103.037024,1080.08707 113.696026,1090.12098 124.103489,1100.18633 L125.549843,1101.7905 L127.65649,1100.90978 L127.436392,1103.58339 L129.417269,1105.5021 L131.20949,1107.45226 L133.221809,1106.88609 L129.417269,1105.5021 L127.65649,1100.90978 L125.990038,1098.8338 L124.103489,1100.18633 L124.858108,1096.28601 C115.362478,1086.5981 105.39521,1075.77784 93.3841808,1069.26682 Z M145.515821,1069.51845 C148.28276,1071.27989 151.049698,1073.00987 153.84808,1074.7084 C179.78813,1089.30317 205.508083,1104.33829 231.479575,1118.87015 C221.16644,1104.49556 209.847146,1090.56134 198.527851,1076.9731 C181.108714,1073.76477 163.155055,1071.62588 145.515821,1069.51845 Z M200.948922,1073.73332 C236.761913,1089.58625 273.392408,1104.02375 309.708478,1118.68143 C297.477352,1102.45104 285.18334,1086.2521 272.480576,1070.39917 C248.678615,1072.00333 224.782326,1072.69533 200.948922,1073.73332 Z M143.880812,1072.56951 C146.364768,1076.15529 148.943052,1079.70962 151.615663,1083.16959 C160.451002,1093.10913 167.997198,1104.68429 177.367059,1113.99474 C208.054924,1132.08093 239.120099,1149.91549 270.185275,1167.37259 C260.689644,1154.35054 250.345066,1142.02047 240.472126,1129.28151 C238.145382,1126.16754 235.001134,1124.24883 231.699673,1122.33012 C206.325587,1107.95553 181.045829,1093.42367 155.734629,1078.95472 C151.804318,1076.78438 147.874007,1074.64549 143.880812,1072.56951 Z M279.901002,1074.67694 C291.314625,1090.46697 303.482866,1105.94246 315.713993,1121.07195 C341.056636,1117.04581 366.242067,1111.98167 391.553267,1107.76681 L389.886815,1105.34483 C356.432011,1095.84565 322.725667,1086.5981 289.302306,1077.03601 C286.158057,1076.2182 283.045251,1075.43185 279.901002,1074.67694 Z M894.318604,1087.03846 C903.405482,1103.17449 914.12737,1118.33543 923.591558,1134.25128 C951.512484,1114.62383 978.961774,1093.95839 1005.97087,1073.04132 C968.774409,1077.85382 931.546506,1082.38323 894.318604,1087.03846 Z M204.564808,1079.04908 C206.922995,1082.32032 209.312623,1085.56011 211.765137,1088.76844 C220.348936,1099.39998 228.775522,1110.15733 237.296435,1120.82032 C258.331458,1120.09687 279.460808,1119.56215 300.49583,1118.96451 C273.266638,1106.03682 244.622534,1095.75129 216.890262,1083.86158 C212.771297,1082.25742 208.683774,1080.65325 204.564808,1079.04908 Z M665.920392,1144.4739 C676.956704,1160.51557 688.055902,1176.49432 699.280869,1192.41017 C728.64815,1177.78394 757.795334,1162.68591 786.97396,1147.71369 C790.275421,1146.20389 793.859864,1144.00209 797.507192,1143.75046 C838.822618,1140.82521 880.263813,1139.31541 921.547796,1136.01271 C911.423316,1119.81378 901.173066,1103.70921 890.891373,1087.60464 C849.198638,1089.96371 807.191478,1092.22841 765.530185,1094.65039 C759.587555,1094.93348 754.996953,1098.17326 749.683173,1100.72106 C721.919458,1115.56746 693.464009,1129.28151 665.920392,1144.4739 Z M534.082052,1131.98657 C545.401347,1148.15405 557.255164,1163.91262 568.637343,1180.0172 C599.702519,1168.37913 630.358942,1155.38853 661.141134,1142.90119 C649.94761,1126.38772 638.6912,1109.87424 626.994596,1093.73821 C595.866535,1106.00537 564.895688,1118.90161 534.082052,1131.98657 Z M325.146739,1122.58175 C328.731182,1126.01026 334.893909,1126.6079 339.547397,1128.18061 C371.492962,1136.95634 403.218429,1146.6757 435.321206,1154.94817 C423.844699,1139.56704 412.399635,1124.15446 400.765915,1108.89916 C375.580485,1113.58584 350.300727,1117.76925 325.146739,1122.58175 Z M405.073536,1109.5597 C416.612928,1125.41263 428.15232,1141.61157 440.729314,1156.67815 C468.335816,1147.52496 497.325787,1141.13975 524.397767,1130.7284 C488.176024,1124.65773 452.111493,1117.67489 415.952636,1111.22677 C412.33675,1110.62914 408.689421,1110.06296 405.073536,1109.5597 Z M139.195882,1110.18878 C141.805608,1113.17693 144.415334,1116.19654 146.993618,1119.21615 C164.947277,1140.95103 182.460741,1163.44081 200.728825,1184.86115 C225.253963,1204.36278 250.470836,1223.29823 275.247515,1242.51677 C295.653688,1255.6961 307.821929,1280.67076 325.178181,1296.90115 C344.043672,1301.58783 363.223588,1305.29943 382.183407,1309.60866 C377.152609,1300.2353 369.229103,1292.24592 362.846278,1283.72183 C357.595383,1277.87134 353.350648,1269.50451 346.433301,1265.57273 C314.802161,1246.98327 282.573614,1228.77127 251.131129,1209.93018 C236.164506,1194.61196 224.687999,1175.45633 209.344066,1160.51557 C187.743079,1144.19082 166.362189,1127.52007 144.698316,1111.32113 L139.195882,1110.18878 Z M240.409241,1123.27375 C243.333392,1124.815 246.288986,1126.2619 249.276022,1127.70879 C282.290631,1141.07685 315.022258,1155.16835 348.099753,1168.28476 C337.69229,1154.03599 326.56165,1140.3534 315.902648,1126.2619 C312.726957,1122.29866 308.450779,1121.1034 303.482866,1121.4494 C282.447844,1122.51884 261.444264,1122.92775 240.409241,1123.27375 Z M182.869493,1121.04049 C193.748593,1134.81745 204.187498,1150.32439 217.016032,1162.33991 C247.075048,1179.92283 277.322719,1197.50575 307.664717,1214.64831 C298.672166,1202.22389 288.799226,1190.55437 279.460808,1178.44448 C275.530497,1173.38035 270.342487,1170.98983 264.93438,1167.81295 C242.327233,1154.79089 219.625759,1141.89466 197.081497,1128.77824 C192.365124,1126.13608 187.617309,1123.55683 182.869493,1121.04049 Z M318.763914,1125.34973 C321.688065,1129.2186 324.643659,1133.08747 327.599252,1136.92489 C336.528918,1147.96532 344.735407,1159.69776 353.916612,1170.54947 C393.031064,1182.59644 432.96302,1193.51106 472.391896,1204.67732 C462.047319,1190.23982 451.293989,1176.05396 440.540659,1161.89955 C437.962375,1158.1565 433.403215,1157.87341 429.378577,1156.45797 C392.433657,1146.3297 355.708834,1135.38363 318.763914,1125.34973 Z M243.55349,1128.74678 C246.477641,1132.42693 249.370349,1136.07562 252.294501,1139.75577 C260.218007,1149.66385 267.921416,1159.72921 275.876364,1169.57439 C278.140223,1172.6569 282.699384,1173.91507 286.06373,1175.45633 C319.392764,1189.07602 352.470258,1203.3877 385.862177,1216.94447 C374.951635,1202.60134 364.103978,1188.10093 352.721798,1174.16671 C321.971048,1159.79212 289.145093,1147.65078 257.796935,1134.15691 C253.080563,1132.30111 248.332747,1130.50822 243.55349,1128.74678 Z M451.293989,1158.9114 C489.056413,1165.10789 526.535856,1173.12872 564.329723,1179.04211 C553.41918,1163.44081 542.288541,1147.83951 530.654821,1132.77293 C504.589001,1140.7623 478.303084,1148.1226 452.237263,1156.11197 L451.293989,1158.9114 Z M707.707455,1192.06417 C747.670853,1193.44816 788.514642,1193.88852 828.509483,1194.04579 C857.530896,1175.80233 887.55847,1158.69122 915.605166,1139.06377 C877.213892,1142.2092 838.633963,1143.78191 800.179804,1146.29825 C793.859864,1146.6757 788.608969,1150.16712 783.012207,1152.87219 C758.141201,1166.27169 732.232593,1178.09849 707.707455,1192.06417 Z M579.956638,1181.30682 C618.505125,1184.82969 657.053611,1188.57275 695.602098,1192.18999 C684.691556,1176.62014 674.032553,1160.83011 662.870471,1145.41753 C635.735606,1156.26924 608.820839,1167.27823 581.74886,1178.19285 L579.956638,1181.30682 Z M443.118943,1160.38975 C454.249582,1175.64506 465.914744,1190.55437 476.951057,1205.87258 C503.740054,1199.51882 530.246069,1191.08909 556.752084,1183.54007 L558.229881,1181.02373 C523.014297,1174.95306 487.924484,1168.12749 452.740343,1161.83664 C449.53321,1161.33338 446.326076,1160.83011 443.118943,1160.38975 Z M202.678259,1192.03271 C194.063018,1182.34481 184.064308,1167.90731 171.455871,1163.81826 C177.209846,1172.40527 185.164795,1179.70265 192.553779,1186.84277 C195.6037,1189.95674 198.496409,1191.08909 202.678259,1192.03271 Z M220.946343,1168.15895 C223.964821,1172.40527 227.077627,1176.55723 230.253318,1180.67773 C237.98817,1189.51638 244.748304,1199.83337 253.112005,1207.94856 C283.202463,1225.53148 313.198594,1243.55476 343.792132,1260.22551 C333.63621,1247.20345 323.763269,1233.04904 312.412532,1221.09643 C286.818349,1205.71531 260.532432,1191.08909 234.781036,1175.9596 C230.190434,1173.3489 225.568388,1170.73819 220.946343,1168.15895 Z M357.658268,1175.17324 C368.726023,1189.79946 380.07676,1206.12421 392.559427,1219.36645 C430.793489,1231.16179 469.562073,1241.91914 508.016232,1253.02249 C498.614929,1237.86154 486.541015,1222.95223 475.316047,1209.018 C439.817482,1197.8832 403.532854,1188.44693 367.814191,1177.84685 C364.449845,1176.93468 361.054057,1176.02251 357.658268,1175.17324 Z M282.636499,1177.65813 C293.075404,1191.52945 303.985946,1205.14913 314.959373,1218.58009 C349.45178,1234.37012 385.610637,1248.6818 420.700451,1263.40239 C412.08521,1248.93344 400.45149,1235.37666 389.69816,1222.38606 C358.035578,1207.57111 324.612216,1195.08378 292.446554,1181.11809 C289.207978,1179.92283 285.93796,1178.75903 282.636499,1177.65813 Z M485.188988,1206.87912 C495.502123,1210.49635 506.789975,1211.47144 517.543305,1213.76759 C545.118364,1218.643 572.567654,1224.24186 600.174156,1228.77127 C589.892463,1213.39014 578.604611,1198.63811 567.882724,1183.54007 C540.339107,1191.34072 512.826932,1199.3301 485.188988,1206.87912 Z M571.718707,1183.35134 C582.314824,1199.17283 593.728446,1214.74268 605.299281,1229.90362 C647.274999,1233.8354 689.219274,1237.83009 731.163549,1241.76187 C736.383001,1241.85623 741.445241,1237.92445 746.130172,1235.87993 C771.001177,1222.95223 796.658245,1210.99962 820.931844,1197.19121 C799.330857,1196.87667 777.824197,1195.71286 756.191767,1196.24758 C737.231948,1196.3734 718.617997,1193.82561 699.595294,1195.2725 C656.990726,1191.62381 614.291832,1187.28312 571.718707,1183.35134 Z M195.635142,1195.93304 C200.445843,1201.02863 205.036445,1206.4073 210.255898,1211.09398 L213.211492,1210.24472 L212.456872,1213.16996 C222.770007,1223.32968 232.454292,1234.84194 244.150897,1243.39749 C235.567098,1231.03597 223.681839,1221.03352 213.211492,1210.24472 C211.010518,1208.07438 208.809544,1205.90403 206.60857,1203.73369 C207.520402,1200.17936 206.388472,1196.46776 203.212781,1192.59889 L195.635142,1195.93304 Z M210.79042,1197.19121 C213.463031,1200.77699 216.198528,1204.29987 218.965466,1207.75984 C229.435814,1219.99553 236.699028,1232.35705 251.602766,1239.87461 C251.822863,1242.54822 251.665651,1245.06456 251.319784,1247.70672 C261.287051,1257.89789 268.172956,1272.8072 281.661782,1277.33661 C287.730181,1280.2304 293.861466,1282.80965 300.181405,1285.20017 C298.860821,1282.90401 297.445909,1280.70222 295.905227,1278.59478 C282.259189,1268.59234 269.462097,1257.36317 255.375864,1248.02126 C256.633563,1247.39218 257.891263,1246.73164 259.148962,1246.10255 C270.12239,1256.105 282.636499,1264.34601 294.113006,1273.81374 C299.395343,1277.74552 303.482866,1282.71529 310.211558,1283.78473 C299.521113,1272.42975 291.12597,1257.48899 278.580418,1248.49308 C259.463387,1234.14994 240.692224,1219.335 221.732405,1204.83459 C218.147962,1202.19243 214.500633,1199.64464 210.79042,1197.19121 Z M480.566942,1210.08745 C491.54037,1224.68222 502.54524,1241.22715 514.587711,1254.68956 C554.80265,1262.74185 595.457783,1269.88196 635.798491,1277.39952 C624.762179,1262.33294 614.197504,1246.826 602.689555,1232.10542 C565.55598,1225.75166 528.516732,1218.54864 491.446042,1211.75452 C487.830157,1211.15689 484.214271,1210.59072 480.566942,1210.08745 Z M319.770074,1224.43058 C329.360032,1237.42118 339.578839,1249.93997 349.640434,1262.52167 C352.721798,1266.67363 357.092303,1267.5858 361.557136,1269.69323 C393.565586,1283.25001 425.668363,1296.61806 457.551043,1310.48938 C447.8982,1296.14625 436.767561,1281.48857 425.228169,1268.71815 C393.722799,1255.09847 361.651464,1242.0135 330.020324,1228.51963 C326.624535,1227.13565 323.197304,1225.78311 319.770074,1224.43058 Z M394.351648,1223.36114 C404.853438,1236.25738 414.820706,1249.53107 424.913744,1262.71039 C427.492028,1266.61072 430.573391,1267.55435 434.881012,1268.78106 C471.417179,1279.28678 507.827577,1290.2014 544.42663,1300.5813 C533.893397,1285.98653 523.328722,1271.14013 511.820773,1257.36317 C478.020101,1247.07764 443.622022,1237.57845 409.695581,1227.57601 C404.570456,1226.16057 399.476773,1224.74512 394.351648,1223.36114 Z M607.374485,1233.04904 C618.127815,1248.14708 628.849702,1263.33948 640.011784,1278.12297 C668.781658,1266.98817 697.960285,1256.51391 726.227079,1244.2153 C686.609547,1240.53515 646.992016,1236.50901 607.374485,1233.04904 Z M516.505703,1258.18098 C518.832447,1261.38931 521.190633,1264.59765 523.54882,1267.80598 C531.849636,1279.16096 540.747859,1290.04413 548.765693,1301.58783 C576.812389,1295.92607 604.607546,1287.30761 632.339818,1280.10459 C593.854216,1272.20957 555.117075,1265.47837 516.505703,1258.18098 Z M356.369126,1270.82559 C366.870916,1284.31946 377.372706,1297.81332 388.346134,1310.92974 C409.538369,1311.46447 431.233683,1312.817 452.614573,1311.55883 C424.662204,1299.00859 396.14387,1287.55924 368.002846,1275.38645 C364.13542,1273.84519 360.267994,1272.30394 356.369126,1270.82559 Z M431.642436,1270.82559 C433.96918,1274.00246 436.295923,1277.17934 438.685552,1280.32477 C446.986368,1291.17648 455.538724,1301.87092 463.808098,1312.75409 C489.339396,1310.2692 514.807809,1306.40033 540.244779,1303.16055 C504.526116,1291.20793 467.801294,1281.58294 431.642436,1270.82559 Z" id="p1"></path>
            </g>
        </g>
    </g>
</svg>